<svg xmlns="http://www.w3.org/2000/svg" xmlns:xlink="http://www.w3.org/1999/xlink" width="400" zoomAndPan="magnify" viewBox="0 0 300 299.999988" height="400" preserveAspectRatio="xMidYMid meet" version="1.0"><defs><g/><clipPath id="2d2a45bbbf"><path d="M 94 8.695312 L 98 8.695312 L 98 75 L 94 75 Z M 94 8.695312 " clip-rule="nonzero"/></clipPath><clipPath id="26ef302b3d"><path d="M 94 138 L 98 138 L 98 203.703125 L 94 203.703125 Z M 94 138 " clip-rule="nonzero"/></clipPath><clipPath id="6d57b54788"><path d="M 38.285156 35 L 299.59375 35 L 299.59375 291.261719 L 38.285156 291.261719 Z M 38.285156 35 " clip-rule="nonzero"/></clipPath><clipPath id="195c9eedb1"><path d="M 38.285156 48 L 291 48 L 291 259 L 38.285156 259 Z M 38.285156 48 " clip-rule="nonzero"/></clipPath><clipPath id="e51472ff6f"><path d="M 78 128 L 110 128 L 110 144.726562 L 78 144.726562 Z M 78 128 " clip-rule="nonzero"/></clipPath><clipPath id="7d49298cac"><path d="M 57.410156 101 L 65 101 L 65 128 L 57.410156 128 Z M 57.410156 101 " clip-rule="nonzero"/></clipPath><clipPath id="f3b38e12c7"><path d="M 64 99 L 134.4375 99 L 134.4375 144.726562 L 64 144.726562 Z M 64 99 " clip-rule="nonzero"/></clipPath><clipPath id="c7d8f02ed3"><path d="M 57.410156 67.699219 L 95 67.699219 L 95 128 L 57.410156 128 Z M 57.410156 67.699219 " clip-rule="nonzero"/></clipPath><clipPath id="cf0840da84"><path d="M 91 67.699219 L 124 67.699219 L 124 87 L 91 87 Z M 91 67.699219 " clip-rule="nonzero"/></clipPath><clipPath id="f0b8c30cbe"><path d="M 57.410156 85 L 68 85 L 68 102 L 57.410156 102 Z M 57.410156 85 " clip-rule="nonzero"/></clipPath><clipPath id="893ee9489e"><path d="M 93 67.699219 L 95 67.699219 L 95 69 L 93 69 Z M 93 67.699219 " clip-rule="nonzero"/></clipPath><clipPath id="13159dbdb4"><path d="M 102 136 L 110 136 L 110 144.726562 L 102 144.726562 Z M 102 136 " clip-rule="nonzero"/></clipPath><clipPath id="6299ac85ad"><path d="M 57.410156 101 L 65 101 L 65 114 L 57.410156 114 Z M 57.410156 101 " clip-rule="nonzero"/></clipPath></defs><path stroke-linecap="butt" transform="matrix(1.165118, 0, 0, 1.165118, -120.420908, -103.462264)" fill-opacity="1" fill="#ffffff" fill-rule="nonzero" stroke-linejoin="miter" d="M 247.251519 179.948734 C 247.251519 215.540628 219.682554 244.390311 185.676471 244.390311 C 151.667036 244.390311 124.101423 215.540628 124.101423 179.948734 C 124.101423 144.360194 151.667036 115.51051 185.676471 115.51051 C 219.682554 115.51051 247.251519 144.360194 247.251519 179.948734 Z M 247.251519 179.948734 " stroke="#000000" stroke-width="2" stroke-opacity="1" stroke-miterlimit="4"/><path stroke-linecap="butt" transform="matrix(0.832225, 0, 0, 0.832225, -58.609876, -43.556238)" fill-opacity="1" fill="#ffffff" fill-rule="nonzero" stroke-linejoin="miter" d="M 247.248073 179.950484 C 247.248073 215.538424 219.681736 244.390847 185.675586 244.390847 C 151.669437 244.390847 124.098405 215.538424 124.098405 179.950484 C 124.098405 144.362544 151.669437 115.510122 185.675586 115.510122 C 219.681736 115.510122 247.248073 144.362544 247.248073 179.950484 Z M 247.248073 179.950484 " stroke="#000000" stroke-width="2" stroke-opacity="1" stroke-miterlimit="4"/><path stroke-linecap="butt" transform="matrix(0.499333, 0, 0, 0.499333, 3.202256, 16.34979)" fill-opacity="1" fill="#ffffff" fill-rule="nonzero" stroke-linejoin="miter" d="M 247.253431 179.946705 C 247.253431 215.54106 219.685407 244.392045 185.671285 244.392045 C 151.664986 244.392045 124.096962 215.54106 124.096962 179.946705 C 124.096962 144.360173 151.664986 115.509188 185.671285 115.509188 C 219.685407 115.509188 247.253431 144.360173 247.253431 179.946705 Z M 247.253431 179.946705 " stroke="#000000" stroke-width="2" stroke-opacity="1" stroke-miterlimit="4"/><path fill="#202020" d="M 94.945312 9.421875 L 96.890625 9.421875 L 96.890625 73.449219 L 94.945312 73.449219 Z M 94.945312 9.421875 " fill-opacity="1" fill-rule="nonzero"/><g clip-path="url(#2d2a45bbbf)"><path stroke-linecap="round" transform="matrix(1.0892, 0, 0, 1.0892, -196.241244, -261.875575)" fill="none" stroke-linejoin="miter" d="M 267.339748 249.079467 L 269.125749 249.079467 L 269.125749 307.863272 L 267.339748 307.863272 Z M 267.339748 249.079467 " stroke="#000000" stroke-width="1.216" stroke-opacity="1" stroke-miterlimit="4"/></g><path fill="#202020" d="M 94.945312 138.949219 L 96.890625 138.949219 L 96.890625 202.976562 L 94.945312 202.976562 Z M 94.945312 138.949219 " fill-opacity="1" fill-rule="nonzero"/><g clip-path="url(#26ef302b3d)"><path stroke-linecap="butt" transform="matrix(1.0892, 0, 0, 1.0892, -196.241244, -261.875575)" fill="none" stroke-linejoin="miter" d="M 267.339748 367.999131 L 269.125749 367.999131 L 269.125749 426.782936 L 267.339748 426.782936 Z M 267.339748 367.999131 " stroke="#000000" stroke-width="1.216" stroke-opacity="1" stroke-miterlimit="4"/></g><path stroke-linecap="butt" transform="matrix(0, 1.0892, -1.0892, 0, -196.241244, -261.875575)" fill-opacity="1" fill="#202020" fill-rule="nonzero" stroke-linejoin="miter" d="M 337.041788 -355.689395 L 338.824202 -355.689395 L 338.824202 -296.905589 L 337.041788 -296.905589 Z M 337.041788 -355.689395 " stroke="#000000" stroke-width="1.216" stroke-opacity="1" stroke-miterlimit="4"/><path stroke-linecap="butt" transform="matrix(0, 1.0892, -1.0892, 0, -196.241244, -261.875575)" fill-opacity="1" fill="#202020" fill-rule="nonzero" stroke-linejoin="miter" d="M 337.041788 -239.559908 L 338.824202 -239.559908 L 338.824202 -180.776102 L 337.041788 -180.776102 Z M 337.041788 -239.559908 " stroke="#000000" stroke-width="1.216" stroke-opacity="1" stroke-miterlimit="4"/><path fill="#202020" d="M 63.238281 106.035156 L 128.589844 106.035156 L 128.589844 106.359375 L 63.238281 106.359375 Z M 63.238281 106.035156 " fill-opacity="1" fill-rule="nonzero"/><path fill="#202020" d="M 96.078125 73.523438 L 96.078125 138.875 L 95.75 138.875 L 95.75 73.523438 Z M 96.078125 73.523438 " fill-opacity="1" fill-rule="nonzero"/><path fill="#202020" d="M 94.269531 99.878906 L 97.539062 99.878906 L 97.539062 100.96875 L 94.269531 100.96875 Z M 94.269531 99.878906 " fill-opacity="1" fill-rule="nonzero"/><path fill="#202020" d="M 94.269531 80.273438 L 97.539062 80.273438 L 97.539062 81.363281 L 94.269531 81.363281 Z M 94.269531 80.273438 " fill-opacity="1" fill-rule="nonzero"/><path fill="#202020" d="M 94.269531 86.808594 L 97.539062 86.808594 L 97.539062 87.898438 L 94.269531 87.898438 Z M 94.269531 86.808594 " fill-opacity="1" fill-rule="nonzero"/><path fill="#202020" d="M 94.269531 93.34375 L 97.539062 93.34375 L 97.539062 94.433594 L 94.269531 94.433594 Z M 94.269531 93.34375 " fill-opacity="1" fill-rule="nonzero"/><path fill="#202020" d="M 94.304688 131.042969 L 97.570312 131.042969 L 97.570312 132.132812 L 94.304688 132.132812 Z M 94.304688 131.042969 " fill-opacity="1" fill-rule="nonzero"/><path fill="#202020" d="M 94.304688 111.4375 L 97.570312 111.4375 L 97.570312 112.527344 L 94.304688 112.527344 Z M 94.304688 111.4375 " fill-opacity="1" fill-rule="nonzero"/><path fill="#202020" d="M 94.304688 117.972656 L 97.570312 117.972656 L 97.570312 119.0625 L 94.304688 119.0625 Z M 94.304688 117.972656 " fill-opacity="1" fill-rule="nonzero"/><path fill="#202020" d="M 94.304688 124.507812 L 97.570312 124.507812 L 97.570312 125.597656 L 94.304688 125.597656 Z M 94.304688 124.507812 " fill-opacity="1" fill-rule="nonzero"/><path fill="#202020" d="M 102.242188 104.554688 L 102.242188 107.820312 L 101.152344 107.820312 L 101.152344 104.554688 Z M 102.242188 104.554688 " fill-opacity="1" fill-rule="nonzero"/><path fill="#202020" d="M 121.847656 104.554688 L 121.847656 107.820312 L 120.757812 107.820312 L 120.757812 104.554688 Z M 121.847656 104.554688 " fill-opacity="1" fill-rule="nonzero"/><path fill="#202020" d="M 115.3125 104.554688 L 115.3125 107.820312 L 114.222656 107.820312 L 114.222656 104.554688 Z M 115.3125 104.554688 " fill-opacity="1" fill-rule="nonzero"/><path fill="#202020" d="M 108.777344 104.554688 L 108.777344 107.820312 L 107.6875 107.820312 L 107.6875 104.554688 Z M 108.777344 104.554688 " fill-opacity="1" fill-rule="nonzero"/><path fill="#202020" d="M 71.082031 104.585938 L 71.082031 107.851562 L 69.992188 107.851562 L 69.992188 104.585938 Z M 71.082031 104.585938 " fill-opacity="1" fill-rule="nonzero"/><path fill="#202020" d="M 90.6875 104.585938 L 90.6875 107.851562 L 89.597656 107.851562 L 89.597656 104.585938 Z M 90.6875 104.585938 " fill-opacity="1" fill-rule="nonzero"/><path fill="#202020" d="M 84.152344 104.585938 L 84.152344 107.851562 L 83.0625 107.851562 L 83.0625 104.585938 Z M 84.152344 104.585938 " fill-opacity="1" fill-rule="nonzero"/><path fill="#202020" d="M 77.617188 104.585938 L 77.617188 107.851562 L 76.527344 107.851562 L 76.527344 104.585938 Z M 77.617188 104.585938 " fill-opacity="1" fill-rule="nonzero"/><path fill="#0f4c81" d="M 140.464844 98.808594 C 144.441406 123.453125 127.648438 146.628906 103.003906 150.605469 C 78.363281 154.582031 55.183594 137.789062 51.207031 113.144531 C 47.230469 88.5 64.027344 65.324219 88.667969 61.347656 C 113.3125 57.371094 136.492188 74.164062 140.464844 98.808594 Z M 140.464844 98.808594 " fill-opacity="1" fill-rule="nonzero"/><g clip-path="url(#6d57b54788)"><path fill="#202020" d="M 299.675781 247.03125 C 299.730469 247.242188 299.78125 247.503906 299.78125 247.710938 C 299.992188 248.707031 299.835938 249.648438 299.207031 250.484375 C 298.578125 251.375 298.054688 252.367188 297.0625 252.890625 C 296.328125 253.308594 295.597656 253.730469 294.707031 253.886719 C 293.03125 254.148438 291.359375 254.410156 289.738281 254.671875 L 289.738281 254.777344 L 256.460938 260.214844 C 238.828125 263.09375 221.195312 265.917969 203.566406 268.746094 C 195.089844 270.105469 186.664062 271.464844 178.191406 272.824219 C 175.625 273.246094 173.113281 273.714844 170.550781 274.03125 L 164.167969 275.074219 C 161.917969 275.496094 159.667969 275.859375 157.417969 276.175781 C 156.371094 276.332031 155.324219 276.488281 154.226562 276.644531 L 145.488281 278.058594 C 145.070312 278.109375 144.652344 278.214844 144.285156 278.265625 C 134.710938 279.835938 125.136719 281.355469 115.613281 282.871094 C 112.789062 283.34375 110.015625 283.761719 107.191406 284.230469 C 106.617188 284.335938 106.039062 284.441406 105.464844 284.492188 L 101.539062 285.121094 C 100.914062 285.277344 100.285156 285.382812 99.605469 285.488281 C 94.949219 286.273438 90.238281 287.003906 85.582031 287.789062 C 80.351562 288.625 75.171875 289.464844 69.9375 290.25 C 69.625 290.300781 69.257812 290.351562 68.945312 290.40625 L 64.339844 291.136719 L 64.289062 290.980469 C 64.027344 291.035156 63.765625 291.035156 63.503906 291.085938 C 63.03125 291.136719 62.71875 291.035156 62.71875 290.511719 C 62.667969 289.308594 62.5625 288.101562 62.195312 286.953125 C 62.089844 286.636719 62.039062 286.375 61.828125 286.117188 C 61.566406 285.75 61.410156 285.277344 61.359375 284.808594 C 61.253906 283.5 60.835938 282.296875 60.207031 281.144531 C 60.101562 280.9375 59.996094 280.675781 59.996094 280.414062 C 59.789062 278.425781 59.265625 276.4375 59.109375 274.449219 C 59.003906 273.191406 58.898438 271.882812 58.691406 270.628906 C 58.53125 269.792969 58.375 268.953125 58.480469 268.066406 C 58.585938 267.382812 58.011719 266.757812 57.90625 266.078125 C 57.644531 264.820312 57.171875 263.617188 56.753906 262.414062 C 56.441406 261.578125 56.648438 260.6875 56.386719 259.851562 C 56.023438 258.648438 55.761719 257.390625 55.8125 256.136719 C 55.863281 254.671875 55.65625 253.308594 55.339844 251.898438 C 55.078125 250.539062 55.132812 249.074219 55.132812 247.660156 C 55.132812 247.136719 54.871094 246.664062 54.816406 246.144531 C 54.765625 245.777344 54.871094 245.515625 55.238281 245.410156 L 55.183594 245.097656 C 54.765625 245.097656 54.714844 244.835938 54.503906 243.996094 C 54.296875 243.109375 54.136719 242.167969 54.191406 241.222656 C 54.242188 240.335938 53.980469 239.445312 53.613281 238.609375 C 53.089844 237.351562 53.039062 235.992188 52.777344 234.738281 C 52.359375 232.800781 52.253906 230.8125 51.835938 228.929688 C 51.730469 228.40625 51.785156 227.882812 51.785156 227.308594 C 51.785156 227.097656 51.835938 226.941406 51.835938 226.730469 C 51.835938 226.105469 51.886719 225.894531 52.046875 225.738281 L 51.992188 225.421875 C 51.679688 225.421875 51.625 225.164062 51.523438 224.902344 C 51 223.800781 51.101562 222.597656 50.789062 221.5 C 50.421875 220.085938 50.371094 218.621094 49.898438 217.261719 C 49.636719 216.53125 49.847656 216.164062 50.476562 216.007812 L 50.421875 215.691406 C 50.371094 215.691406 50.371094 215.691406 50.320312 215.691406 C 49.691406 215.847656 49.429688 215.535156 49.429688 215.0625 C 49.429688 214.488281 49.21875 214.019531 48.957031 213.546875 C 48.539062 212.761719 48.644531 211.871094 48.488281 211.035156 C 48.277344 209.882812 48.015625 208.734375 48.171875 207.582031 C 48.226562 207.113281 48.015625 206.640625 47.859375 206.167969 C 47.597656 205.175781 47.492188 204.128906 47.285156 203.136719 C 47.128906 202.558594 47.335938 201.984375 47.390625 201.410156 C 47.441406 200.519531 47.128906 199.734375 47.023438 198.84375 C 46.867188 197.277344 46.550781 195.652344 46.238281 194.082031 C 46.132812 193.71875 46.238281 193.300781 46.289062 192.878906 C 46.445312 191.886719 45.871094 191.101562 45.820312 190.160156 C 45.765625 189.53125 45.664062 188.902344 45.765625 188.277344 C 45.871094 187.804688 45.664062 187.335938 45.609375 186.914062 C 45.558594 186.707031 45.609375 186.601562 45.664062 186.496094 L 45.609375 186.078125 C 45.402344 186.027344 45.296875 185.921875 45.242188 185.609375 C 45.140625 184.875 44.980469 184.195312 44.667969 183.515625 C 44.511719 183.148438 44.457031 182.730469 44.511719 182.257812 C 44.5625 181.945312 44.511719 181.632812 44.300781 181.371094 C 44.25 181.265625 44.144531 181.160156 44.144531 181.054688 C 43.988281 179.328125 43.152344 177.65625 43.253906 175.929688 C 43.359375 174.464844 43.046875 173 43.046875 171.535156 C 43.046875 171.0625 43.046875 170.539062 42.992188 170.070312 L 41.164062 158.664062 C 40.535156 158.085938 40.585938 157.25 40.429688 156.464844 C 40.167969 155 39.90625 153.484375 39.488281 152.019531 C 39.070312 150.605469 38.757812 149.140625 38.441406 147.625 L 38.285156 147.308594 L 38.496094 146.996094 C 38.441406 146.421875 38.808594 146.054688 39.070312 145.6875 C 39.332031 145.375 39.75 145.058594 40.167969 144.957031 C 41.109375 144.746094 41.949219 144.328125 42.835938 143.960938 C 43.464844 143.699219 44.144531 143.4375 44.773438 143.230469 L 49.898438 140.664062 C 50.160156 140.507812 50.476562 140.351562 50.738281 140.246094 L 54.398438 138.414062 C 54.503906 138.363281 54.609375 138.308594 54.714844 138.207031 C 55.238281 137.890625 55.707031 137.628906 55.917969 137.003906 C 55.96875 136.84375 56.125 136.84375 56.230469 136.84375 C 57.066406 136.792969 57.90625 136.636719 58.636719 136.320312 L 59.578125 135.851562 C 59.894531 135.640625 60.207031 135.433594 60.46875 135.117188 C 60.574219 135.015625 60.625 134.910156 60.730469 134.910156 C 61.777344 134.59375 62.769531 134.175781 63.765625 133.757812 L 65.019531 133.128906 C 65.125 133.078125 65.230469 133.027344 65.335938 132.921875 C 66.277344 132.292969 67.269531 131.769531 68.265625 131.246094 C 69.46875 130.621094 70.777344 130.148438 71.925781 129.414062 C 73.027344 128.683594 74.28125 128.265625 75.433594 127.636719 C 77.003906 126.800781 78.675781 126.277344 80.296875 125.648438 C 80.613281 125.542969 80.925781 125.386719 81.1875 125.125 C 81.605469 124.757812 82.023438 124.394531 82.652344 124.339844 C 82.964844 124.289062 83.28125 123.976562 83.542969 123.714844 C 84.011719 123.292969 84.589844 123.085938 85.164062 122.929688 C 85.949219 122.769531 86.578125 122.507812 87.046875 121.828125 C 87.152344 121.621094 87.363281 121.566406 87.570312 121.515625 C 88.40625 121.253906 89.089844 120.78125 89.558594 120.050781 C 89.769531 119.738281 90.03125 119.527344 90.5 119.527344 C 91.285156 119.527344 92.070312 119.527344 92.542969 118.742188 L 92.59375 118.691406 C 93.535156 118.636719 94.269531 117.90625 95.15625 117.695312 C 95.367188 117.644531 95.574219 117.589844 95.734375 117.433594 C 96.359375 116.753906 97.355469 116.546875 98.035156 115.96875 C 98.871094 115.238281 99.8125 114.871094 100.859375 114.453125 C 101.121094 114.347656 101.277344 114.085938 101.382812 113.824219 C 101.539062 113.355469 101.855469 113.09375 102.378906 113.09375 C 103.320312 113.144531 104.15625 112.882812 105.046875 112.621094 C 105.308594 112.570312 105.515625 112.410156 105.515625 112.097656 C 105.515625 111.730469 105.726562 111.628906 105.988281 111.574219 C 107.191406 111.417969 108.238281 110.632812 109.386719 110.371094 C 109.703125 110.320312 109.808594 110.003906 109.964844 109.796875 C 110.433594 109.117188 110.957031 108.4375 111.535156 107.808594 C 112.109375 107.179688 113 107.074219 113.625 106.550781 C 113.886719 106.34375 114.621094 106.605469 115.039062 106.8125 C 115.667969 107.074219 116.191406 106.867188 116.714844 106.707031 C 116.765625 106.707031 116.765625 106.65625 116.816406 106.65625 C 118.179688 106.605469 119.066406 105.453125 120.375 105.085938 C 121.316406 104.824219 122.257812 104.25 122.9375 103.414062 C 123.304688 102.941406 123.828125 102.628906 124.507812 102.574219 C 125.347656 102.574219 126.027344 102.210938 126.757812 101.894531 C 127.648438 101.476562 128.015625 100.585938 128.484375 99.800781 C 128.902344 99.121094 130.105469 98.390625 130.945312 98.496094 C 131.46875 98.546875 131.886719 98.496094 131.832031 97.816406 C 131.832031 97.605469 131.9375 97.34375 132.148438 97.238281 C 132.777344 96.925781 133.246094 96.453125 133.71875 95.984375 C 134.1875 95.511719 134.816406 95.40625 135.496094 95.40625 C 136.070312 95.40625 136.542969 95.25 136.910156 94.78125 C 137.117188 94.570312 137.328125 94.414062 137.589844 94.308594 C 138.320312 93.890625 139.054688 93.417969 139.734375 92.894531 C 140.9375 92.007812 142.246094 91.273438 143.816406 91.167969 C 145.019531 91.117188 146.222656 90.855469 147.320312 90.386719 C 148.105469 90.070312 148.941406 89.652344 149.621094 89.078125 C 149.9375 88.761719 150.304688 88.710938 150.722656 89.023438 C 151.296875 89.390625 152.1875 89.285156 152.65625 88.761719 C 153.074219 88.34375 153.335938 87.714844 154.070312 87.664062 C 154.277344 87.664062 154.382812 87.402344 154.382812 87.140625 C 154.382812 86.933594 154.488281 86.671875 154.4375 86.460938 C 154.277344 85.046875 155.117188 84.316406 156.164062 83.636719 C 156.476562 83.425781 156.6875 83.164062 156.632812 82.796875 C 156.582031 82.589844 156.738281 82.378906 156.84375 82.222656 C 157.15625 81.804688 157.261719 81.386719 157.367188 80.863281 C 157.472656 80.183594 157.785156 79.921875 158.464844 79.867188 C 158.726562 79.867188 158.988281 79.765625 159.199219 79.660156 C 159.457031 79.503906 159.773438 79.398438 160.035156 79.34375 C 161.707031 79.34375 162.546875 78.246094 163.332031 76.992188 C 163.59375 76.625 163.855469 76.414062 164.273438 76.414062 C 165.320312 76.46875 166.3125 76.675781 167.359375 76.46875 C 167.464844 76.46875 167.671875 76.46875 167.777344 76.574219 C 168.300781 77.09375 168.824219 76.78125 169.296875 76.46875 C 170.289062 75.890625 171.230469 75.316406 172.433594 75.160156 C 173.480469 75.003906 174.839844 74.792969 174.945312 73.171875 C 174.945312 73.066406 175.050781 72.910156 175.15625 72.910156 C 176.042969 72.597656 176.464844 71.601562 177.457031 71.445312 C 177.929688 71.339844 178.292969 71.078125 178.554688 70.660156 C 178.765625 70.347656 179.132812 70.085938 179.550781 70.03125 C 180.804688 69.875 181.957031 69.300781 183.109375 68.777344 C 184.519531 68.148438 186.039062 67.574219 187.605469 68.410156 C 188.550781 68.882812 189.332031 68.515625 190.117188 68.148438 C 190.695312 67.886719 191.269531 67.941406 191.898438 68.148438 C 192.523438 68.359375 193.207031 68.460938 193.78125 67.992188 C 194.199219 67.679688 194.671875 67.625 195.140625 67.417969 C 195.351562 67.3125 195.613281 67.257812 195.769531 67.101562 C 197.078125 66.054688 198.699219 65.480469 200.214844 64.75 C 201.628906 64.066406 202.882812 63.074219 204.296875 62.394531 C 205.5 61.816406 206.390625 61.191406 206.859375 59.933594 C 206.964844 59.671875 207.28125 59.621094 207.488281 59.570312 C 208.222656 59.359375 208.953125 59.148438 209.53125 58.523438 C 209.949219 58.050781 210.523438 57.894531 211.203125 57.945312 C 211.988281 58.050781 212.667969 57.582031 213.402344 57.371094 C 213.765625 57.265625 214.082031 57.109375 214.394531 56.953125 L 215.023438 56.480469 L 215.703125 56.273438 C 216.121094 55.957031 216.4375 55.488281 216.90625 55.171875 C 217.429688 54.808594 217.847656 54.285156 218.320312 53.8125 C 218.371094 53.761719 218.476562 53.65625 218.527344 53.65625 C 219.679688 53.550781 220.410156 52.765625 221.144531 52.035156 C 221.773438 51.40625 222.136719 51.457031 222.714844 52.085938 C 223.238281 52.660156 223.550781 52.609375 224.179688 52.242188 C 225.226562 51.667969 226.21875 51.039062 227.476562 51.09375 C 228.050781 51.144531 228.574219 50.777344 229.097656 50.777344 C 230.25 50.726562 231.085938 49.992188 232.183594 49.835938 C 232.601562 49.785156 232.96875 49.574219 233.335938 49.3125 C 233.648438 49.105469 233.964844 48.949219 234.328125 49 C 235.480469 49.050781 236.472656 48.527344 237.417969 47.902344 C 237.992188 47.535156 238.621094 46.960938 239.507812 47.222656 C 240.136719 47.378906 240.609375 46.800781 241.027344 46.4375 C 241.652344 45.859375 242.335938 45.652344 243.117188 45.652344 C 243.484375 45.652344 243.746094 45.597656 243.957031 45.285156 C 244.269531 44.867188 244.6875 44.761719 245.210938 44.710938 C 245.578125 44.710938 245.996094 44.65625 246.152344 44.394531 C 246.832031 43.296875 247.933594 43.246094 249.03125 43.191406 C 250.023438 43.140625 250.808594 42.667969 251.699219 42.355469 C 252.746094 42.042969 253.6875 41.414062 254.839844 41.519531 C 255.257812 41.570312 255.464844 41.203125 255.832031 41.097656 C 256.773438 40.890625 257.664062 40.523438 258.554688 39.949219 C 259.234375 39.476562 259.757812 38.796875 260.59375 38.535156 C 261.011719 38.429688 261.273438 38.011719 261.535156 37.699219 C 262.007812 37.019531 262.632812 36.546875 263.105469 35.972656 C 263.578125 35.449219 264.257812 35.292969 264.882812 35.082031 C 265.144531 34.976562 265.144531 35.292969 265.199219 35.5 C 265.929688 37.644531 266.085938 39.84375 266.453125 42.042969 C 267.550781 48.632812 268.597656 55.171875 269.644531 61.765625 C 270.746094 68.566406 271.789062 75.367188 272.941406 82.171875 C 273.777344 87.140625 274.457031 92.113281 275.296875 97.03125 C 275.871094 100.378906 276.394531 103.675781 276.96875 107.023438 C 277.285156 108.90625 277.546875 110.789062 277.859375 112.726562 C 278.433594 116.441406 279.0625 120.101562 279.691406 123.816406 C 280.371094 128.003906 281.050781 132.242188 281.730469 136.480469 C 282.515625 141.398438 283.351562 146.316406 284.136719 151.234375 C 284.609375 154.214844 285.078125 157.199219 285.550781 160.179688 C 286.074219 163.320312 286.546875 166.457031 287.121094 169.597656 C 287.75 173.261719 288.324219 176.921875 288.898438 180.585938 C 290.363281 189.636719 291.828125 198.636719 293.242188 207.6875 C 295.492188 220.871094 297.585938 233.953125 299.675781 247.03125 Z M 299.675781 247.03125 " fill-opacity="1" fill-rule="nonzero"/></g><g clip-path="url(#195c9eedb1)"><path fill="#000000" d="M 55.761719 254.410156 L 290.15625 216.738281 L 290.257812 217.3125 L 55.8125 255.035156 M 288.691406 207.476562 L 55.183594 244.992188 L 55.289062 245.566406 L 288.792969 208 Z M 287.121094 197.640625 L 53.613281 235.15625 L 53.71875 235.730469 L 287.226562 198.164062 Z M 285.445312 187.175781 L 51.941406 224.742188 L 52.046875 225.320312 L 285.550781 187.753906 Z M 283.824219 177.339844 L 50.371094 214.90625 L 50.476562 215.484375 L 283.980469 177.917969 Z M 281.679688 167.558594 L 48.171875 205.125 L 48.277344 205.699219 L 281.785156 168.132812 Z M 280.109375 157.722656 L 46.605469 195.289062 L 46.707031 195.863281 L 280.214844 158.296875 Z M 278.433594 147.308594 L 45.503906 184.769531 L 45.609375 185.347656 L 278.539062 147.886719 Z M 276.8125 137.472656 L 43.359375 174.988281 L 43.464844 175.5625 L 276.96875 137.996094 Z M 275.347656 128.160156 L 42.417969 165.621094 L 42.523438 166.195312 L 275.453125 128.789062 Z M 40.585938 156.414062 L 273.882812 118.898438 L 273.777344 118.324219 L 40.484375 155.835938 M 38.859375 146 L 272.210938 108.488281 L 272.105469 107.914062 L 39.488281 145.320312 C 39.226562 145.375 38.859375 146 38.859375 146 Z M 68.472656 131.140625 L 270.585938 98.546875 L 270.484375 97.972656 L 70.410156 130.253906 M 97.617188 116.230469 L 269.019531 88.660156 L 268.914062 88.082031 L 98.664062 115.445312 M 127.597656 101.320312 L 267.394531 78.820312 L 267.292969 78.246094 L 128.066406 100.640625 M 154.59375 86.25 L 265.722656 68.359375 L 265.617188 67.78125 L 154.59375 85.675781 M 175.101562 72.859375 L 264.152344 58.574219 L 264.046875 58 L 176.203125 72.125 M 213.765625 57.160156 L 262.113281 49.367188 L 262.007812 48.789062 L 215.074219 56.324219 M 60.625 256.605469 C 59.996094 256.710938 59.527344 257.285156 59.632812 257.96875 C 59.738281 258.59375 60.3125 259.066406 60.992188 258.960938 C 61.621094 258.855469 62.089844 258.28125 61.984375 257.601562 C 61.882812 256.972656 61.253906 256.503906 60.625 256.605469 Z M 70.460938 255.035156 C 69.835938 255.140625 69.363281 255.71875 69.46875 256.398438 C 69.574219 257.023438 70.148438 257.496094 70.828125 257.390625 C 71.457031 257.285156 71.925781 256.710938 71.824219 256.03125 C 71.71875 255.351562 71.089844 254.933594 70.460938 255.035156 Z M 80.296875 253.46875 C 79.671875 253.570312 79.199219 254.148438 79.304688 254.828125 C 79.410156 255.457031 79.984375 255.925781 80.664062 255.820312 C 81.292969 255.71875 81.761719 255.140625 81.660156 254.460938 C 81.554688 253.78125 80.976562 253.363281 80.296875 253.46875 Z M 90.1875 251.898438 C 89.558594 252.003906 89.089844 252.578125 89.191406 253.257812 C 89.296875 253.9375 89.871094 254.355469 90.554688 254.253906 C 91.179688 254.148438 91.652344 253.570312 91.546875 252.890625 C 91.441406 252.210938 90.816406 251.792969 90.1875 251.898438 Z M 100.597656 250.171875 C 99.972656 250.277344 99.5 250.851562 99.605469 251.53125 C 99.710938 252.160156 100.285156 252.628906 100.964844 252.527344 C 101.59375 252.421875 102.0625 251.84375 101.957031 251.164062 C 101.855469 250.484375 101.226562 250.066406 100.597656 250.171875 Z M 110.433594 248.601562 C 109.808594 248.707031 109.335938 249.28125 109.441406 249.960938 C 109.546875 250.589844 110.121094 251.0625 110.800781 250.957031 C 111.429688 250.851562 111.898438 250.277344 111.796875 249.597656 C 111.691406 248.914062 111.113281 248.496094 110.433594 248.601562 Z M 120.324219 247.03125 C 119.695312 247.136719 119.222656 247.710938 119.328125 248.390625 C 119.433594 249.074219 120.007812 249.492188 120.691406 249.386719 C 121.316406 249.28125 121.789062 248.707031 121.683594 248.027344 C 121.578125 247.347656 120.949219 246.925781 120.324219 247.03125 Z M 130.160156 245.460938 C 129.53125 245.566406 129.0625 246.144531 129.164062 246.824219 C 129.269531 247.503906 129.84375 247.921875 130.527344 247.816406 C 131.152344 247.710938 131.625 247.136719 131.519531 246.457031 C 131.414062 245.777344 130.789062 245.359375 130.160156 245.460938 Z M 139.996094 243.839844 C 139.367188 243.945312 138.898438 244.519531 139 245.199219 C 139.105469 245.882812 139.683594 246.300781 140.363281 246.195312 C 140.988281 246.089844 141.460938 245.515625 141.355469 244.835938 C 141.25 244.207031 140.625 243.734375 139.996094 243.839844 Z M 149.832031 242.269531 C 149.203125 242.375 148.734375 242.949219 148.835938 243.632812 C 148.941406 244.3125 149.519531 244.730469 150.199219 244.625 C 150.824219 244.519531 151.296875 243.945312 151.191406 243.265625 C 151.085938 242.585938 150.511719 242.167969 149.832031 242.269531 Z M 159.71875 240.703125 C 159.09375 240.804688 158.621094 241.382812 158.726562 242.0625 C 158.832031 242.742188 159.40625 243.160156 160.085938 243.054688 C 160.714844 242.949219 161.183594 242.375 161.082031 241.695312 C 160.976562 241.015625 160.347656 240.597656 159.71875 240.703125 Z M 169.558594 239.132812 C 168.929688 239.234375 168.457031 239.8125 168.5625 240.492188 C 168.667969 241.121094 169.242188 241.589844 169.921875 241.484375 C 170.550781 241.382812 171.023438 240.804688 170.917969 240.125 C 170.8125 239.445312 170.183594 239.027344 169.558594 239.132812 Z M 179.96875 237.40625 C 179.339844 237.507812 178.871094 238.085938 178.972656 238.765625 C 179.078125 239.394531 179.65625 239.863281 180.335938 239.757812 C 180.960938 239.65625 181.433594 239.078125 181.328125 238.398438 C 181.222656 237.71875 180.597656 237.351562 179.96875 237.40625 Z M 189.804688 235.835938 C 189.175781 235.941406 188.707031 236.515625 188.8125 237.195312 C 188.914062 237.824219 189.492188 238.292969 190.171875 238.191406 C 190.796875 238.085938 191.269531 237.507812 191.164062 236.828125 C 191.058594 236.203125 190.484375 235.730469 189.804688 235.835938 Z M 199.691406 234.265625 C 199.066406 234.371094 198.59375 234.945312 198.699219 235.625 C 198.804688 236.253906 199.378906 236.726562 200.058594 236.621094 C 200.6875 236.515625 201.160156 235.941406 201.054688 235.261719 C 200.898438 234.578125 200.320312 234.160156 199.691406 234.265625 Z M 209.53125 232.695312 C 208.902344 232.800781 208.429688 233.375 208.535156 234.054688 C 208.640625 234.683594 209.214844 235.15625 209.894531 235.050781 C 210.523438 234.945312 210.996094 234.371094 210.890625 233.691406 C 210.785156 233.011719 210.15625 232.589844 209.53125 232.695312 Z M 219.367188 231.074219 C 218.738281 231.179688 218.265625 231.753906 218.371094 232.433594 C 218.476562 233.0625 219.050781 233.535156 219.730469 233.429688 C 220.359375 233.324219 220.832031 232.75 220.726562 232.070312 C 220.621094 231.441406 219.992188 230.96875 219.367188 231.074219 Z M 229.203125 229.503906 C 228.574219 229.609375 228.101562 230.183594 228.207031 230.863281 C 228.3125 231.492188 228.886719 231.964844 229.566406 231.859375 C 230.195312 231.753906 230.667969 231.179688 230.5625 230.5 C 230.457031 229.820312 229.882812 229.398438 229.203125 229.503906 Z M 239.089844 227.933594 C 238.460938 228.039062 237.992188 228.617188 238.097656 229.296875 C 238.199219 229.921875 238.777344 230.394531 239.457031 230.289062 C 240.085938 230.183594 240.554688 229.609375 240.449219 228.929688 C 240.292969 228.25 239.71875 227.832031 239.089844 227.933594 Z M 248.925781 226.367188 C 248.296875 226.46875 247.828125 227.046875 247.933594 227.726562 C 248.039062 228.355469 248.613281 228.824219 249.292969 228.71875 C 249.921875 228.617188 250.390625 228.039062 250.285156 227.359375 C 250.183594 226.679688 249.554688 226.261719 248.925781 226.367188 Z M 259.339844 224.691406 C 258.710938 224.796875 258.238281 225.371094 258.34375 226.050781 C 258.449219 226.679688 259.023438 227.148438 259.703125 227.046875 C 260.332031 226.941406 260.804688 226.367188 260.699219 225.683594 C 260.59375 225.003906 259.964844 224.585938 259.339844 224.691406 Z M 269.226562 223.070312 C 268.597656 223.175781 268.128906 223.75 268.234375 224.429688 C 268.335938 225.058594 268.914062 225.527344 269.59375 225.421875 C 270.222656 225.320312 270.691406 224.742188 270.585938 224.0625 C 270.429688 223.4375 269.855469 222.964844 269.226562 223.070312 Z M 279.0625 221.5 C 278.433594 221.605469 277.964844 222.179688 278.070312 222.859375 C 278.171875 223.488281 278.75 223.957031 279.429688 223.855469 C 280.058594 223.75 280.527344 223.175781 280.421875 222.492188 C 280.320312 221.8125 279.691406 221.394531 279.0625 221.5 Z M 288.898438 219.929688 C 288.273438 220.035156 287.800781 220.609375 287.90625 221.289062 C 288.011719 221.917969 288.585938 222.390625 289.265625 222.285156 C 289.894531 222.179688 290.363281 221.605469 290.257812 220.925781 C 290.15625 220.242188 289.527344 219.824219 288.898438 219.929688 Z M 288.898438 219.929688 " fill-opacity="1" fill-rule="nonzero"/></g><g fill="#f1eeec" fill-opacity="1"><g transform="translate(81.318238, 194.049265)"><g><path d="M 1.515625 -0.25 L -4.265625 -34.375 L 9.390625 -36.6875 L 10.515625 -30.0625 L 3.71875 -28.921875 L 4.640625 -23.46875 L 11.078125 -24.5625 L 12.1875 -18.015625 L 5.75 -16.921875 L 8.375 -1.421875 Z M 1.515625 -0.25 "/></g></g></g><g fill="#f1eeec" fill-opacity="1"><g transform="translate(97.170825, 191.364524)"><g><path d="M 9.71875 -1.3125 C 6.957031 -0.84375 4.71875 -1.328125 3 -2.765625 C 1.289062 -4.210938 0.175781 -6.457031 -0.34375 -9.5 L -3.09375 -25.75 C -3.59375 -28.695312 -3.253906 -31.039062 -2.078125 -32.78125 C -0.898438 -34.519531 1.066406 -35.625 3.828125 -36.09375 C 6.578125 -36.550781 8.789062 -36.15625 10.46875 -34.90625 C 12.15625 -33.65625 13.25 -31.554688 13.75 -28.609375 L 16.5 -12.359375 C 17.019531 -9.285156 16.707031 -6.789062 15.5625 -4.875 C 14.414062 -2.957031 12.46875 -1.769531 9.71875 -1.3125 Z M 8.640625 -7.609375 C 9.242188 -7.710938 9.609375 -8.039062 9.734375 -8.59375 C 9.859375 -9.15625 9.84375 -9.914062 9.6875 -10.875 L 6.859375 -27.5625 C 6.734375 -28.300781 6.53125 -28.882812 6.25 -29.3125 C 5.976562 -29.75 5.535156 -29.914062 4.921875 -29.8125 C 3.785156 -29.613281 3.363281 -28.65625 3.65625 -26.9375 L 6.46875 -10.28125 C 6.632812 -9.300781 6.878906 -8.582031 7.203125 -8.125 C 7.523438 -7.664062 8.003906 -7.492188 8.640625 -7.609375 Z M 8.640625 -7.609375 "/></g></g></g><g fill="#f1eeec" fill-opacity="1"><g transform="translate(116.47999, 188.094388)"><g><path d="M 4.453125 -0.75 L -0.21875 -28.328125 L -4.265625 -27.640625 L -5.375 -34.1875 L 9.546875 -36.71875 L 10.65625 -30.171875 L 6.609375 -29.484375 L 11.28125 -1.90625 Z M 4.453125 -0.75 "/></g></g></g><g fill="#f1eeec" fill-opacity="1"><g transform="translate(132.213391, 185.429832)"><g><path d="M 9.71875 -1.3125 C 6.957031 -0.84375 4.71875 -1.328125 3 -2.765625 C 1.289062 -4.210938 0.175781 -6.457031 -0.34375 -9.5 L -3.09375 -25.75 C -3.59375 -28.695312 -3.253906 -31.039062 -2.078125 -32.78125 C -0.898438 -34.519531 1.066406 -35.625 3.828125 -36.09375 C 6.578125 -36.550781 8.789062 -36.15625 10.46875 -34.90625 C 12.15625 -33.65625 13.25 -31.554688 13.75 -28.609375 L 16.5 -12.359375 C 17.019531 -9.285156 16.707031 -6.789062 15.5625 -4.875 C 14.414062 -2.957031 12.46875 -1.769531 9.71875 -1.3125 Z M 8.640625 -7.609375 C 9.242188 -7.710938 9.609375 -8.039062 9.734375 -8.59375 C 9.859375 -9.15625 9.84375 -9.914062 9.6875 -10.875 L 6.859375 -27.5625 C 6.734375 -28.300781 6.53125 -28.882812 6.25 -29.3125 C 5.976562 -29.75 5.535156 -29.914062 4.921875 -29.8125 C 3.785156 -29.613281 3.363281 -28.65625 3.65625 -26.9375 L 6.46875 -10.28125 C 6.632812 -9.300781 6.878906 -8.582031 7.203125 -8.125 C 7.523438 -7.664062 8.003906 -7.492188 8.640625 -7.609375 Z M 8.640625 -7.609375 "/></g></g></g><g fill="#f1eeec" fill-opacity="1"><g transform="translate(151.522556, 182.159696)"><g><path d="M 8.59375 -1.125 C 6.144531 -0.707031 4.164062 -1.265625 2.65625 -2.796875 C 1.15625 -4.328125 0.109375 -6.851562 -0.484375 -10.375 L -2.984375 -25.0625 C -3.515625 -28.21875 -3.210938 -30.722656 -2.078125 -32.578125 C -0.953125 -34.441406 1 -35.609375 3.78125 -36.078125 C 6.03125 -36.460938 7.851562 -36.304688 9.25 -35.609375 C 10.65625 -34.921875 11.738281 -33.753906 12.5 -32.109375 C 13.269531 -30.472656 13.882812 -28.300781 14.34375 -25.59375 L 7.671875 -24.453125 L 7.15625 -27.53125 C 7.007812 -28.351562 6.785156 -28.96875 6.484375 -29.375 C 6.179688 -29.789062 5.742188 -29.953125 5.171875 -29.859375 C 3.867188 -29.628906 3.359375 -28.664062 3.640625 -26.96875 L 6.4375 -10.453125 C 6.613281 -9.410156 6.878906 -8.648438 7.234375 -8.171875 C 7.585938 -7.691406 8.09375 -7.507812 8.75 -7.625 C 9.414062 -7.738281 9.832031 -8.078125 10 -8.640625 C 10.175781 -9.210938 10.175781 -10.019531 10 -11.0625 L 9.171875 -15.9375 L 7.359375 -15.640625 L 6.375 -21.515625 L 14.71875 -22.921875 L 18.078125 -3.0625 L 15.328125 -2.59375 L 13.703125 -5.265625 C 12.847656 -2.929688 11.144531 -1.550781 8.59375 -1.125 Z M 8.59375 -1.125 "/></g></g></g><g fill="#f1eeec" fill-opacity="1"><g transform="translate(170.791997, 178.896287)"><g><path d="M -4.265625 -34.375 L 6.21875 -36.15625 C 7.882812 -36.4375 9.238281 -36.273438 10.28125 -35.671875 C 11.320312 -35.078125 12.113281 -34.125 12.65625 -32.8125 C 13.207031 -31.507812 13.664062 -29.796875 14.03125 -27.671875 C 14.351562 -25.734375 14.351562 -24.179688 14.03125 -23.015625 C 13.71875 -21.847656 12.972656 -20.945312 11.796875 -20.3125 C 12.867188 -20.269531 13.707031 -19.878906 14.3125 -19.140625 C 14.914062 -18.398438 15.335938 -17.328125 15.578125 -15.921875 L 17.6875 -3 L 11 -1.859375 L 8.734375 -15.21875 C 8.578125 -16.164062 8.289062 -16.738281 7.875 -16.9375 C 7.457031 -17.144531 6.757812 -17.164062 5.78125 -17 L 8.421875 -1.421875 L 1.515625 -0.25 Z M 6.453125 -23.1875 C 7.398438 -23.351562 7.703125 -24.472656 7.359375 -26.546875 C 7.203125 -27.441406 7.046875 -28.109375 6.890625 -28.546875 C 6.734375 -28.984375 6.535156 -29.269531 6.296875 -29.40625 C 6.054688 -29.539062 5.738281 -29.578125 5.34375 -29.515625 L 3.75 -29.25 L 4.8125 -22.921875 Z M 6.453125 -23.1875 "/></g></g></g><g fill="#f1eeec" fill-opacity="1"><g transform="translate(189.743591, 175.686709)"><g><path d="M 0.59375 -0.109375 L -1.890625 -34.78125 L 9.671875 -36.734375 L 18.71875 -3.171875 L 12.234375 -2.078125 L 10.8125 -7.5 L 6.6875 -6.8125 L 7.21875 -1.21875 Z M 6.296875 -12.34375 L 9.390625 -12.875 L 4.9375 -29.984375 L 4.609375 -29.921875 Z M 6.296875 -12.34375 "/></g></g></g><g fill="#f1eeec" fill-opacity="1"><g transform="translate(209.013032, 172.4233)"><g><path d="M 1.515625 -0.25 L -4.265625 -34.375 L 9.390625 -36.6875 L 10.515625 -30.0625 L 3.71875 -28.921875 L 4.640625 -23.46875 L 11.078125 -24.5625 L 12.1875 -18.015625 L 5.75 -16.921875 L 8.375 -1.421875 Z M 1.515625 -0.25 "/></g></g></g><g fill="#f1eeec" fill-opacity="1"><g transform="translate(224.865619, 169.738559)"><g><path d="M 1.1875 -0.203125 L -4.59375 -34.328125 L 2 -35.4375 L 7.78125 -1.3125 Z M -6.078125 -35.15625 L -6.8125 -39.484375 L 1.703125 -45.296875 L 2.84375 -38.546875 Z M -6.078125 -35.15625 "/></g></g></g><g fill="#f1eeec" fill-opacity="1"><g transform="translate(233.884512, 168.211149)"><g><path d="M 0.59375 -0.109375 L -1.890625 -34.78125 L 9.671875 -36.734375 L 18.71875 -3.171875 L 12.234375 -2.078125 L 10.8125 -7.5 L 6.6875 -6.8125 L 7.21875 -1.21875 Z M 6.296875 -12.34375 L 9.390625 -12.875 L 4.9375 -29.984375 L 4.609375 -29.921875 Z M 6.296875 -12.34375 "/></g></g></g><g fill="#f1eeec" fill-opacity="1"><g transform="translate(84.509088, 239.988199)"><g><path d="M -4.96875 -39.9375 L 5.96875 -41.796875 C 8.800781 -42.273438 11.054688 -41.847656 12.734375 -40.515625 C 14.421875 -39.179688 15.539062 -36.976562 16.09375 -33.90625 L 19.328125 -15.375 C 20.023438 -11.476562 19.84375 -8.425781 18.78125 -6.21875 C 17.726562 -4.019531 15.609375 -2.648438 12.421875 -2.109375 L 1.75 -0.296875 Z M 9.9375 -8.90625 C 11.382812 -9.144531 11.988281 -9.972656 11.75 -11.390625 L 8.28125 -31.828125 C 8.132812 -32.722656 7.953125 -33.382812 7.734375 -33.8125 C 7.515625 -34.238281 7.207031 -34.492188 6.8125 -34.578125 C 6.425781 -34.660156 5.847656 -34.632812 5.078125 -34.5 L 4.203125 -34.359375 L 8.546875 -8.671875 Z M 9.9375 -8.90625 "/></g></g></g><g fill="#f1eeec" fill-opacity="1"><g transform="translate(107.258489, 236.135436)"><g><path d="M 1.75 -0.296875 L -4.96875 -39.9375 L 10.90625 -42.625 L 12.203125 -34.96875 L 4.40625 -33.65625 L 5.71875 -25.9375 L 13.1875 -27.203125 L 14.453125 -19.734375 L 6.984375 -18.46875 L 8.53125 -9.375 L 16.828125 -10.78125 L 18.125 -3.078125 Z M 1.75 -0.296875 "/></g></g></g><g fill="#f1eeec" fill-opacity="1"><g transform="translate(126.270166, 232.915682)"><g><path d="M -4.96875 -39.9375 L 5.515625 -41.71875 C 8.679688 -42.25 11.113281 -41.601562 12.8125 -39.78125 C 14.519531 -37.957031 15.707031 -35.082031 16.375 -31.15625 C 17.039062 -27.21875 16.941406 -24.144531 16.078125 -21.9375 C 15.210938 -19.738281 13.226562 -18.378906 10.125 -17.859375 L 6.890625 -17.3125 L 9.546875 -1.625 L 1.75 -0.296875 Z M 6.140625 -24.546875 C 7.097656 -24.703125 7.769531 -24.992188 8.15625 -25.421875 C 8.539062 -25.847656 8.742188 -26.398438 8.765625 -27.078125 C 8.796875 -27.765625 8.707031 -28.726562 8.5 -29.96875 C 8.21875 -31.625 7.832031 -32.785156 7.34375 -33.453125 C 6.851562 -34.128906 6.050781 -34.375 4.9375 -34.1875 L 4.0625 -34.046875 L 5.671875 -24.46875 Z M 6.140625 -24.546875 "/></g></g></g><g fill="#f1eeec" fill-opacity="1"><g transform="translate(148.050533, 229.227032)"><g><path d="M 11.28125 -1.53125 C 8.070312 -0.976562 5.472656 -1.539062 3.484375 -3.21875 C 1.503906 -4.894531 0.210938 -7.503906 -0.390625 -11.046875 L -3.59375 -29.921875 C -4.164062 -33.328125 -3.769531 -36.039062 -2.40625 -38.0625 C -1.050781 -40.082031 1.226562 -41.367188 4.4375 -41.921875 C 7.625 -42.453125 10.195312 -41.988281 12.15625 -40.53125 C 14.125 -39.070312 15.394531 -36.640625 15.96875 -33.234375 L 19.171875 -14.359375 C 19.773438 -10.785156 19.40625 -7.882812 18.0625 -5.65625 C 16.726562 -3.4375 14.46875 -2.0625 11.28125 -1.53125 Z M 10.046875 -8.828125 C 10.753906 -8.941406 11.175781 -9.328125 11.3125 -9.984375 C 11.457031 -10.640625 11.4375 -11.519531 11.25 -12.625 L 7.96875 -32.015625 C 7.820312 -32.878906 7.585938 -33.554688 7.265625 -34.046875 C 6.953125 -34.546875 6.441406 -34.734375 5.734375 -34.609375 C 4.410156 -34.390625 3.914062 -33.285156 4.25 -31.296875 L 7.515625 -11.96875 C 7.710938 -10.820312 8 -9.976562 8.375 -9.4375 C 8.75 -8.90625 9.304688 -8.703125 10.046875 -8.828125 Z M 10.046875 -8.828125 "/></g></g></g><g fill="#f1eeec" fill-opacity="1"><g transform="translate(170.476923, 225.428973)"><g><path d="M -4.96875 -39.9375 L 7.203125 -42 C 9.148438 -42.332031 10.726562 -42.144531 11.9375 -41.4375 C 13.15625 -40.738281 14.082031 -39.628906 14.71875 -38.109375 C 15.351562 -36.597656 15.878906 -34.609375 16.296875 -32.140625 C 16.679688 -29.890625 16.6875 -28.082031 16.3125 -26.71875 C 15.9375 -25.363281 15.066406 -24.320312 13.703125 -23.59375 C 14.953125 -23.539062 15.925781 -23.082031 16.625 -22.21875 C 17.320312 -21.363281 17.8125 -20.117188 18.09375 -18.484375 L 20.53125 -3.484375 L 12.78125 -2.171875 L 10.15625 -17.671875 C 9.96875 -18.773438 9.632812 -19.445312 9.15625 -19.6875 C 8.675781 -19.925781 7.863281 -19.945312 6.71875 -19.75 L 9.78125 -1.65625 L 1.75 -0.296875 Z M 7.484375 -26.9375 C 8.597656 -27.125 8.953125 -28.421875 8.546875 -30.828125 C 8.367188 -31.878906 8.1875 -32.65625 8 -33.15625 C 7.820312 -33.664062 7.59375 -34 7.3125 -34.15625 C 7.039062 -34.3125 6.671875 -34.351562 6.203125 -34.28125 L 4.359375 -33.96875 L 5.59375 -26.625 Z M 7.484375 -26.9375 "/></g></g></g><g fill="#f1eeec" fill-opacity="1"><g transform="translate(192.488004, 221.70125)"><g><path d="M 5.15625 -0.875 L -0.265625 -32.90625 L -4.953125 -32.109375 L -6.25 -39.71875 L 11.09375 -42.65625 L 12.390625 -35.046875 L 7.6875 -34.25 L 13.109375 -2.21875 Z M 5.15625 -0.875 "/></g></g></g><g fill="#f1eeec" fill-opacity="1"><g transform="translate(210.76136, 218.606535)"><g><path d="M 1.390625 -0.234375 L -5.328125 -39.875 L 2.328125 -41.171875 L 9.046875 -1.53125 Z M 1.390625 -0.234375 "/></g></g></g><g fill="#f1eeec" fill-opacity="1"><g transform="translate(221.236241, 216.832544)"><g><path d="M 5.390625 -0.90625 L -6.203125 -39.78125 L 1.359375 -41.046875 L 8.828125 -14.546875 L 6.859375 -41.984375 L 14.421875 -43.265625 L 16.234375 -2.75 Z M 5.390625 -0.90625 "/></g></g></g><g fill="#f1eeec" fill-opacity="1"><g transform="translate(242.878161, 213.16734)"><g><path d="M 0.6875 -0.125 L -2.1875 -40.40625 L 11.234375 -42.6875 L 21.734375 -3.6875 L 14.203125 -2.40625 L 12.59375 -8.71875 L 7.78125 -7.90625 L 8.390625 -1.421875 Z M 7.296875 -14.34375 L 10.90625 -14.953125 L 5.75 -34.8125 L 5.375 -34.75 Z M 7.296875 -14.34375 "/></g></g></g><g fill="#f1eeec" fill-opacity="1"><g transform="translate(89.958792, 274.432956)"><g><path d="M 1.84375 -0.09375 C 1.539062 -0.0390625 1.210938 -0.015625 0.859375 -0.015625 C 0.503906 -0.015625 0.238281 -0.0507812 0.0625 -0.125 L -0.3125 -2.328125 C -0.164062 -2.285156 0.015625 -2.257812 0.234375 -2.25 C 0.460938 -2.25 0.691406 -2.269531 0.921875 -2.3125 C 1.335938 -2.382812 1.613281 -2.519531 1.75 -2.71875 C 1.894531 -2.925781 1.929688 -3.234375 1.859375 -3.640625 L 0.734375 -10.265625 L 3.234375 -10.6875 L 4.40625 -3.765625 C 4.570312 -2.804688 4.4375 -1.992188 4 -1.328125 C 3.570312 -0.671875 2.851562 -0.257812 1.84375 -0.09375 Z M 1.84375 -0.09375 "/></g></g></g><g fill="#f1eeec" fill-opacity="1"><g transform="translate(96.836008, 273.270617)"><g><path d="M 5.078125 -0.640625 C 3.585938 -0.378906 2.398438 -0.582031 1.515625 -1.25 C 0.640625 -1.925781 0.0859375 -2.914062 -0.140625 -4.21875 L -1.109375 -9.953125 L 1.390625 -10.375 L 2.375 -4.609375 C 2.476562 -3.953125 2.734375 -3.484375 3.140625 -3.203125 C 3.546875 -2.921875 4.0625 -2.835938 4.6875 -2.953125 C 5.3125 -3.054688 5.769531 -3.304688 6.0625 -3.703125 C 6.351562 -4.097656 6.445312 -4.625 6.34375 -5.28125 L 5.359375 -11.046875 L 7.84375 -11.46875 L 8.8125 -5.734375 C 9.039062 -4.421875 8.84375 -3.304688 8.21875 -2.390625 C 7.601562 -1.472656 6.554688 -0.890625 5.078125 -0.640625 Z M 5.078125 -0.640625 "/></g></g></g><g fill="#f1eeec" fill-opacity="1"><g transform="translate(108.320863, 271.329527)"><g><path d="M 2.625 -10.578125 L 5.078125 -11 L 10.6875 -1.8125 L 8.140625 -1.375 L 7 -3.265625 L 3.375 -2.65625 L 2.90625 -0.484375 L 0.359375 -0.0625 Z M 6.046875 -5.078125 L 4.3125 -8.1875 L 3.640625 -4.671875 Z M 6.046875 -5.078125 "/></g></g></g><g fill="#f1eeec" fill-opacity="1"><g transform="translate(120.763878, 269.226495)"><g><path d="M -1.046875 -9.96875 L 1.421875 -10.375 L 6.046875 -5.125 L 5.046875 -11 L 7.546875 -11.421875 L 9.21875 -1.5625 L 6.765625 -1.140625 L 2.125 -6.421875 L 3.125 -0.53125 L 0.625 -0.109375 Z M -1.046875 -9.96875 "/></g></g></g><g fill="#f1eeec" fill-opacity="1"><g transform="translate(132.023272, 267.323511)"><g/></g></g><g fill="#f1eeec" fill-opacity="1"><g transform="translate(138.224135, 266.275484)"><g><path d="M -1.046875 -9.96875 L 2.5 -10.5625 C 3.582031 -10.75 4.5625 -10.710938 5.4375 -10.453125 C 6.3125 -10.191406 7.03125 -9.726562 7.59375 -9.0625 C 8.15625 -8.394531 8.519531 -7.566406 8.6875 -6.578125 C 8.96875 -4.953125 8.695312 -3.632812 7.875 -2.625 C 7.0625 -1.625 5.800781 -0.976562 4.09375 -0.6875 L 0.625 -0.109375 Z M 3.953125 -2.828125 C 4.804688 -2.960938 5.421875 -3.328125 5.796875 -3.921875 C 6.171875 -4.523438 6.28125 -5.265625 6.125 -6.140625 C 5.988281 -6.953125 5.644531 -7.578125 5.09375 -8.015625 C 4.550781 -8.460938 3.878906 -8.617188 3.078125 -8.484375 L 1.8125 -8.28125 L 2.765625 -2.625 Z M 3.953125 -2.828125 "/></g></g></g><g fill="#f1eeec" fill-opacity="1"><g transform="translate(149.511709, 264.367737)"><g><path d="M -1.046875 -9.96875 L 1.453125 -10.390625 L 3.125 -0.53125 L 0.625 -0.109375 Z M -1.046875 -9.96875 "/></g></g></g><g fill="#f1eeec" fill-opacity="1"><g transform="translate(154.683967, 263.493558)"><g><path d="M -1.046875 -9.96875 L 5.953125 -11.140625 L 6.3125 -9.03125 L 1.8125 -8.28125 L 2.125 -6.4375 L 5.40625 -6.984375 L 5.734375 -5.015625 L 2.453125 -4.46875 L 2.765625 -2.625 L 7.265625 -3.375 L 7.625 -1.28125 L 0.625 -0.109375 Z M -1.046875 -9.96875 "/></g></g></g><g fill="#f1eeec" fill-opacity="1"><g transform="translate(164.069317, 261.907312)"><g><path d="M 5.75 -0.75 C 4.675781 -0.5625 3.695312 -0.609375 2.8125 -0.890625 C 1.9375 -1.171875 1.210938 -1.660156 0.640625 -2.359375 C 0.078125 -3.066406 -0.289062 -3.941406 -0.46875 -4.984375 C -0.644531 -6.023438 -0.578125 -6.96875 -0.265625 -7.8125 C 0.0351562 -8.664062 0.554688 -9.367188 1.296875 -9.921875 C 2.035156 -10.472656 2.941406 -10.84375 4.015625 -11.03125 C 4.734375 -11.144531 5.378906 -11.179688 5.953125 -11.140625 C 6.523438 -11.097656 7.078125 -10.96875 7.609375 -10.75 L 8 -8.390625 C 7.53125 -8.640625 7.019531 -8.789062 6.46875 -8.84375 C 5.925781 -8.90625 5.316406 -8.878906 4.640625 -8.765625 C 4.046875 -8.671875 3.546875 -8.46875 3.140625 -8.15625 C 2.734375 -7.851562 2.429688 -7.460938 2.234375 -6.984375 C 2.035156 -6.503906 1.984375 -5.976562 2.078125 -5.40625 C 2.222656 -4.507812 2.601562 -3.847656 3.21875 -3.421875 C 3.832031 -2.992188 4.585938 -2.859375 5.484375 -3.015625 C 5.972656 -3.097656 6.375 -3.25 6.6875 -3.46875 L 6.421875 -5.046875 L 4.90625 -4.796875 L 4.609375 -6.546875 L 8.484375 -7.203125 L 9.3125 -2.296875 C 8.414062 -1.515625 7.226562 -1 5.75 -0.75 Z M 5.75 -0.75 "/></g></g></g><g fill="#f1eeec" fill-opacity="1"><g transform="translate(175.272349, 260.013854)"><g><path d="M 5.6875 -0.734375 C 4.6875 -0.566406 3.742188 -0.628906 2.859375 -0.921875 C 1.984375 -1.222656 1.25 -1.722656 0.65625 -2.421875 C 0.0703125 -3.117188 -0.300781 -3.972656 -0.46875 -4.984375 C -0.632812 -5.984375 -0.554688 -6.910156 -0.234375 -7.765625 C 0.0859375 -8.628906 0.613281 -9.34375 1.34375 -9.90625 C 2.082031 -10.476562 2.953125 -10.847656 3.953125 -11.015625 C 4.941406 -11.179688 5.867188 -11.113281 6.734375 -10.8125 C 7.609375 -10.519531 8.34375 -10.019531 8.9375 -9.3125 C 9.539062 -8.613281 9.925781 -7.765625 10.09375 -6.765625 C 10.257812 -5.753906 10.175781 -4.820312 9.84375 -3.96875 C 9.507812 -3.113281 8.976562 -2.398438 8.25 -1.828125 C 7.53125 -1.265625 6.675781 -0.898438 5.6875 -0.734375 Z M 5.296875 -3.078125 C 5.785156 -3.160156 6.21875 -3.347656 6.59375 -3.640625 C 6.976562 -3.941406 7.253906 -4.320312 7.421875 -4.78125 C 7.597656 -5.25 7.640625 -5.769531 7.546875 -6.34375 C 7.453125 -6.90625 7.25 -7.375 6.9375 -7.75 C 6.625 -8.132812 6.238281 -8.40625 5.78125 -8.5625 C 5.332031 -8.71875 4.859375 -8.753906 4.359375 -8.671875 C 3.847656 -8.585938 3.398438 -8.394531 3.015625 -8.09375 C 2.640625 -7.789062 2.363281 -7.40625 2.1875 -6.9375 C 2.019531 -6.476562 1.984375 -5.96875 2.078125 -5.40625 C 2.171875 -4.832031 2.375 -4.351562 2.6875 -3.96875 C 3.007812 -3.59375 3.398438 -3.328125 3.859375 -3.171875 C 4.316406 -3.023438 4.796875 -2.992188 5.296875 -3.078125 Z M 5.296875 -3.078125 "/></g></g></g><g fill="#f1eeec" fill-opacity="1"><g transform="translate(187.954909, 257.870336)"><g/></g></g><g fill="#f1eeec" fill-opacity="1"><g transform="translate(194.155772, 256.822309)"><g><path d="M -1.046875 -9.96875 L 3.953125 -10.8125 C 4.898438 -10.96875 5.691406 -10.851562 6.328125 -10.46875 C 6.960938 -10.09375 7.351562 -9.472656 7.5 -8.609375 C 7.570312 -8.191406 7.539062 -7.785156 7.40625 -7.390625 C 7.28125 -7.003906 7.0625 -6.675781 6.75 -6.40625 C 7.257812 -6.3125 7.65625 -6.101562 7.9375 -5.78125 C 8.226562 -5.46875 8.421875 -5.023438 8.515625 -4.453125 C 8.617188 -3.859375 8.566406 -3.3125 8.359375 -2.8125 C 8.148438 -2.320312 7.828125 -1.921875 7.390625 -1.609375 C 6.953125 -1.296875 6.445312 -1.085938 5.875 -0.984375 L 0.625 -0.109375 Z M 4.0625 -6.8125 C 4.800781 -6.9375 5.113281 -7.34375 5 -8.03125 C 4.925781 -8.40625 4.785156 -8.648438 4.578125 -8.765625 C 4.367188 -8.890625 4.070312 -8.914062 3.6875 -8.84375 L 1.78125 -8.53125 L 2.125 -6.484375 Z M 4.90625 -2.734375 C 5.34375 -2.804688 5.648438 -2.941406 5.828125 -3.140625 C 6.003906 -3.335938 6.054688 -3.632812 5.984375 -4.03125 C 5.921875 -4.445312 5.765625 -4.722656 5.515625 -4.859375 C 5.273438 -5.003906 4.929688 -5.039062 4.484375 -4.96875 L 2.4375 -4.625 L 2.8125 -2.390625 Z M 4.90625 -2.734375 "/></g></g></g><g fill="#f1eeec" fill-opacity="1"><g transform="translate(204.921995, 255.002677)"><g><path d="M 5.6875 -0.734375 C 4.6875 -0.566406 3.742188 -0.628906 2.859375 -0.921875 C 1.984375 -1.222656 1.25 -1.722656 0.65625 -2.421875 C 0.0703125 -3.117188 -0.300781 -3.972656 -0.46875 -4.984375 C -0.632812 -5.984375 -0.554688 -6.910156 -0.234375 -7.765625 C 0.0859375 -8.628906 0.613281 -9.34375 1.34375 -9.90625 C 2.082031 -10.476562 2.953125 -10.847656 3.953125 -11.015625 C 4.941406 -11.179688 5.867188 -11.113281 6.734375 -10.8125 C 7.609375 -10.519531 8.34375 -10.019531 8.9375 -9.3125 C 9.539062 -8.613281 9.925781 -7.765625 10.09375 -6.765625 C 10.257812 -5.753906 10.175781 -4.820312 9.84375 -3.96875 C 9.507812 -3.113281 8.976562 -2.398438 8.25 -1.828125 C 7.53125 -1.265625 6.675781 -0.898438 5.6875 -0.734375 Z M 5.296875 -3.078125 C 5.785156 -3.160156 6.21875 -3.347656 6.59375 -3.640625 C 6.976562 -3.941406 7.253906 -4.320312 7.421875 -4.78125 C 7.597656 -5.25 7.640625 -5.769531 7.546875 -6.34375 C 7.453125 -6.90625 7.25 -7.375 6.9375 -7.75 C 6.625 -8.132812 6.238281 -8.40625 5.78125 -8.5625 C 5.332031 -8.71875 4.859375 -8.753906 4.359375 -8.671875 C 3.847656 -8.585938 3.398438 -8.394531 3.015625 -8.09375 C 2.640625 -7.789062 2.363281 -7.40625 2.1875 -6.9375 C 2.019531 -6.476562 1.984375 -5.96875 2.078125 -5.40625 C 2.171875 -4.832031 2.375 -4.351562 2.6875 -3.96875 C 3.007812 -3.59375 3.398438 -3.328125 3.859375 -3.171875 C 4.316406 -3.023438 4.796875 -2.992188 5.296875 -3.078125 Z M 5.296875 -3.078125 "/></g></g></g><g fill="#f1eeec" fill-opacity="1"><g transform="translate(217.604562, 252.859158)"><g><path d="M -1.046875 -9.96875 L 1.453125 -10.390625 L 2.765625 -2.625 L 7.046875 -3.34375 L 7.40625 -1.25 L 0.625 -0.109375 Z M -1.046875 -9.96875 "/></g></g></g><g fill="#f1eeec" fill-opacity="1"><g transform="translate(226.496748, 251.356263)"><g><path d="M 2.625 -10.578125 L 5.078125 -11 L 10.6875 -1.8125 L 8.140625 -1.375 L 7 -3.265625 L 3.375 -2.65625 L 2.90625 -0.484375 L 0.359375 -0.0625 Z M 6.046875 -5.078125 L 4.3125 -8.1875 L 3.640625 -4.671875 Z M 6.046875 -5.078125 "/></g></g></g><g fill="#f1eeec" fill-opacity="1"><g transform="translate(238.939771, 249.25323)"><g><path d="M 0.109375 -12.640625 C 0.378906 -13.078125 0.84375 -13.351562 1.5 -13.46875 C 1.695312 -13.5 1.90625 -13.503906 2.125 -13.484375 C 2.34375 -13.460938 2.625 -13.425781 2.96875 -13.375 C 3.28125 -13.3125 3.539062 -13.265625 3.75 -13.234375 C 3.96875 -13.203125 4.179688 -13.207031 4.390625 -13.25 C 4.984375 -13.34375 5.4375 -13.65625 5.75 -14.1875 L 6.0625 -12.390625 C 5.800781 -11.941406 5.335938 -11.664062 4.671875 -11.5625 C 4.429688 -11.519531 4.191406 -11.507812 3.953125 -11.53125 C 3.722656 -11.550781 3.445312 -11.601562 3.125 -11.6875 C 2.8125 -11.75 2.554688 -11.789062 2.359375 -11.8125 C 2.160156 -11.84375 1.96875 -11.84375 1.78125 -11.8125 C 1.1875 -11.707031 0.734375 -11.378906 0.421875 -10.828125 Z M -1.046875 -9.96875 L 1.421875 -10.375 L 6.046875 -5.125 L 5.046875 -11 L 7.546875 -11.421875 L 9.21875 -1.5625 L 6.765625 -1.140625 L 2.125 -6.421875 L 3.125 -0.53125 L 0.625 -0.109375 Z M -1.046875 -9.96875 "/></g></g></g><g fill="#f1eeec" fill-opacity="1"><g transform="translate(250.199171, 247.350245)"><g><path d="M 5.6875 -0.734375 C 4.6875 -0.566406 3.742188 -0.628906 2.859375 -0.921875 C 1.984375 -1.222656 1.25 -1.722656 0.65625 -2.421875 C 0.0703125 -3.117188 -0.300781 -3.972656 -0.46875 -4.984375 C -0.632812 -5.984375 -0.554688 -6.910156 -0.234375 -7.765625 C 0.0859375 -8.628906 0.613281 -9.34375 1.34375 -9.90625 C 2.082031 -10.476562 2.953125 -10.847656 3.953125 -11.015625 C 4.941406 -11.179688 5.867188 -11.113281 6.734375 -10.8125 C 7.609375 -10.519531 8.34375 -10.019531 8.9375 -9.3125 C 9.539062 -8.613281 9.925781 -7.765625 10.09375 -6.765625 C 10.257812 -5.753906 10.175781 -4.820312 9.84375 -3.96875 C 9.507812 -3.113281 8.976562 -2.398438 8.25 -1.828125 C 7.53125 -1.265625 6.675781 -0.898438 5.6875 -0.734375 Z M 5.296875 -3.078125 C 5.785156 -3.160156 6.21875 -3.347656 6.59375 -3.640625 C 6.976562 -3.941406 7.253906 -4.320312 7.421875 -4.78125 C 7.597656 -5.25 7.640625 -5.769531 7.546875 -6.34375 C 7.453125 -6.90625 7.25 -7.375 6.9375 -7.75 C 6.625 -8.132812 6.238281 -8.40625 5.78125 -8.5625 C 5.332031 -8.71875 4.859375 -8.753906 4.359375 -8.671875 C 3.847656 -8.585938 3.398438 -8.394531 3.015625 -8.09375 C 2.640625 -7.789062 2.363281 -7.40625 2.1875 -6.9375 C 2.019531 -6.476562 1.984375 -5.96875 2.078125 -5.40625 C 2.171875 -4.832031 2.375 -4.351562 2.6875 -3.96875 C 3.007812 -3.59375 3.398438 -3.328125 3.859375 -3.171875 C 4.316406 -3.023438 4.796875 -2.992188 5.296875 -3.078125 Z M 5.296875 -3.078125 "/></g></g></g><g fill="#f1eeec" fill-opacity="1"><g transform="translate(262.881723, 245.206729)"><g><path d="M 3.75 -0.40625 C 3.113281 -0.300781 2.484375 -0.253906 1.859375 -0.265625 C 1.234375 -0.285156 0.707031 -0.367188 0.28125 -0.515625 L -0.09375 -2.765625 C 0.445312 -2.578125 1 -2.460938 1.5625 -2.421875 C 2.132812 -2.390625 2.675781 -2.414062 3.1875 -2.5 C 3.644531 -2.570312 3.976562 -2.695312 4.1875 -2.875 C 4.40625 -3.0625 4.492188 -3.289062 4.453125 -3.5625 C 4.410156 -3.75 4.316406 -3.90625 4.171875 -4.03125 C 4.023438 -4.15625 3.816406 -4.257812 3.546875 -4.34375 C 3.285156 -4.425781 2.875 -4.53125 2.3125 -4.65625 C 1.34375 -4.894531 0.613281 -5.207031 0.125 -5.59375 C -0.363281 -5.988281 -0.664062 -6.53125 -0.78125 -7.21875 C -0.882812 -7.789062 -0.816406 -8.328125 -0.578125 -8.828125 C -0.335938 -9.328125 0.0390625 -9.742188 0.5625 -10.078125 C 1.082031 -10.410156 1.707031 -10.640625 2.4375 -10.765625 C 3.039062 -10.867188 3.582031 -10.910156 4.0625 -10.890625 C 4.550781 -10.878906 5.035156 -10.804688 5.515625 -10.671875 L 5.875 -8.484375 C 4.976562 -8.773438 4.109375 -8.851562 3.265625 -8.71875 C 2.804688 -8.632812 2.457031 -8.5 2.21875 -8.3125 C 1.976562 -8.125 1.878906 -7.894531 1.921875 -7.625 C 1.972656 -7.351562 2.144531 -7.15625 2.4375 -7.03125 C 2.738281 -6.90625 3.285156 -6.757812 4.078125 -6.59375 C 4.796875 -6.425781 5.359375 -6.242188 5.765625 -6.046875 C 6.179688 -5.847656 6.503906 -5.585938 6.734375 -5.265625 C 6.960938 -4.953125 7.125 -4.53125 7.21875 -4 C 7.375 -3.082031 7.160156 -2.304688 6.578125 -1.671875 C 6.003906 -1.046875 5.0625 -0.625 3.75 -0.40625 Z M 3.75 -0.40625 "/></g></g></g><path fill="#f1eeec" d="M 133.179688 99.175781 C 133.214844 99.480469 133.292969 99.742188 133.332031 100.046875 C 133.671875 102.058594 133.824219 104.105469 133.824219 106.191406 C 133.824219 114.15625 131.359375 121.585938 127.148438 127.691406 L 123.886719 126.933594 L 122.710938 114.800781 L 128.476562 100.046875 Z M 133.179688 99.175781 " fill-opacity="1" fill-rule="nonzero"/><path fill="#f1eeec" d="M 119.753906 85.976562 L 128.476562 100.046875 L 122.710938 114.800781 L 108.378906 114.800781 L 99.277344 101.148438 L 105.988281 85.976562 Z M 119.753906 85.976562 " fill-opacity="1" fill-rule="nonzero"/><path fill="#f1eeec" d="M 123.886719 126.933594 L 127.148438 127.691406 C 121.535156 135.847656 112.816406 141.6875 102.6875 143.507812 L 109.023438 137.289062 Z M 123.886719 126.933594 " fill-opacity="1" fill-rule="nonzero"/><path fill="#f1eeec" d="M 122.597656 79.265625 L 119.714844 85.976562 L 105.949219 85.976562 L 92.5625 77.257812 L 93.96875 68.34375 C 94.613281 68.304688 95.257812 68.304688 95.902344 68.304688 C 105.417969 68.304688 114.140625 71.832031 120.777344 77.597656 C 121.421875 78.128906 122.03125 78.695312 122.597656 79.265625 Z M 122.597656 79.265625 " fill-opacity="1" fill-rule="nonzero"/><g clip-path="url(#e51472ff6f)"><path fill="#f1eeec" d="M 109.023438 137.289062 L 102.6875 143.507812 C 100.488281 143.886719 98.214844 144.113281 95.902344 144.113281 C 92.679688 144.113281 89.566406 143.695312 86.570312 142.9375 L 78.152344 136.339844 L 84.335938 128.566406 L 100.148438 128.566406 Z M 109.023438 137.289062 " fill-opacity="1" fill-rule="nonzero"/></g><path fill="#f1eeec" d="M 99.277344 101.148438 L 108.378906 114.800781 L 100.148438 128.566406 L 84.335938 128.566406 L 75.800781 114.34375 L 83.539062 101.148438 Z M 99.277344 101.148438 " fill-opacity="1" fill-rule="nonzero"/><path fill="#f1eeec" d="M 93.96875 68.304688 L 92.5625 77.21875 L 78.304688 85.976562 L 67.195312 85.976562 L 67.195312 81.390625 C 73.753906 73.804688 83.273438 68.835938 93.96875 68.304688 Z M 93.96875 68.304688 " fill-opacity="1" fill-rule="nonzero"/><path fill="#f1eeec" d="M 86.570312 142.9375 C 77.507812 140.664062 69.734375 135.085938 64.613281 127.617188 L 78.152344 136.339844 Z M 86.570312 142.9375 " fill-opacity="1" fill-rule="nonzero"/><path fill="#f1eeec" d="M 78.304688 85.976562 L 83.539062 101.148438 L 75.800781 114.34375 L 64.007812 113.585938 L 58.28125 101.335938 L 67.195312 85.976562 Z M 78.304688 85.976562 " fill-opacity="1" fill-rule="nonzero"/><g clip-path="url(#7d49298cac)"><path fill="#f1eeec" d="M 64.007812 113.585938 L 64.578125 127.578125 C 60.40625 121.472656 57.980469 114.117188 57.980469 106.191406 C 57.980469 104.558594 58.09375 102.929688 58.28125 101.335938 Z M 64.007812 113.585938 " fill-opacity="1" fill-rule="nonzero"/></g><path fill="#000000" d="M 122.597656 79.265625 C 127.945312 84.574219 131.738281 91.476562 133.179688 99.175781 L 128.476562 100.046875 L 119.714844 85.976562 Z M 122.597656 79.265625 " fill-opacity="1" fill-rule="nonzero"/><path fill="#000000" d="M 122.710938 114.800781 L 123.886719 126.933594 L 109.023438 137.289062 L 100.148438 128.566406 L 108.378906 114.800781 Z M 122.710938 114.800781 " fill-opacity="1" fill-rule="nonzero"/><path fill="#000000" d="M 105.988281 85.976562 L 99.277344 101.148438 L 83.539062 101.148438 L 78.304688 85.976562 L 92.5625 77.257812 Z M 105.988281 85.976562 " fill-opacity="1" fill-rule="nonzero"/><path fill="#000000" d="M 75.800781 114.34375 L 84.335938 128.566406 L 78.152344 136.339844 L 64.613281 127.617188 C 64.613281 127.617188 64.613281 127.617188 64.613281 127.578125 L 64.007812 113.585938 Z M 75.800781 114.34375 " fill-opacity="1" fill-rule="nonzero"/><path fill="#000000" d="M 67.195312 81.390625 L 67.195312 85.976562 L 58.28125 101.335938 C 59.269531 93.753906 62.453125 86.886719 67.195312 81.390625 Z M 67.195312 81.390625 " fill-opacity="1" fill-rule="nonzero"/><g clip-path="url(#f3b38e12c7)"><path fill="#000000" d="M 95.902344 144.683594 C 92.679688 144.683594 89.492188 144.304688 86.421875 143.507812 C 77.355469 141.230469 69.429688 135.695312 64.121094 127.921875 L 65.070312 127.277344 C 70.226562 134.785156 77.886719 140.167969 86.6875 142.40625 C 91.804688 143.695312 97.304688 143.886719 102.574219 142.9375 C 112.285156 141.191406 121.042969 135.503906 126.65625 127.351562 C 130.941406 121.132812 133.214844 113.773438 133.214844 106.191406 C 133.214844 104.179688 133.066406 102.132812 132.722656 100.160156 C 132.6875 99.859375 132.648438 99.59375 132.570312 99.328125 L 133.671875 99.097656 C 133.746094 99.402344 133.785156 99.707031 133.824219 99.972656 C 134.164062 102.019531 134.316406 104.105469 134.316406 106.191406 C 134.316406 114.039062 131.964844 121.585938 127.527344 127.996094 C 121.765625 136.414062 112.699219 142.253906 102.726562 144.074219 C 100.527344 144.492188 98.214844 144.683594 95.902344 144.683594 Z M 95.902344 144.683594 " fill-opacity="1" fill-rule="nonzero"/></g><g clip-path="url(#c7d8f02ed3)"><path fill="#000000" d="M 64.121094 127.921875 C 59.722656 121.511719 57.410156 114.003906 57.410156 106.191406 C 57.410156 104.558594 57.523438 102.890625 57.714844 101.300781 L 57.714844 101.261719 C 58.660156 93.753906 61.808594 86.773438 66.777344 81.046875 C 73.601562 73.121094 83.5 68.304688 93.929688 67.777344 L 94.003906 68.914062 C 83.878906 69.40625 74.285156 74.109375 67.648438 81.808594 C 62.832031 87.304688 59.800781 94.09375 58.851562 101.375 L 58.851562 101.414062 C 58.660156 102.96875 58.546875 104.597656 58.546875 106.191406 C 58.546875 113.738281 60.785156 121.054688 65.070312 127.277344 Z M 64.121094 127.921875 " fill-opacity="1" fill-rule="nonzero"/></g><path fill="#000000" d="M 128.210938 100.691406 L 119.261719 86.28125 L 120.210938 85.675781 L 128.742188 99.402344 L 132.496094 98.71875 C 131.054688 91.476562 127.492188 84.917969 122.21875 79.683594 L 123.015625 78.886719 C 128.589844 84.421875 132.304688 91.402344 133.746094 99.097656 L 133.863281 99.667969 Z M 128.210938 100.691406 " fill-opacity="1" fill-rule="nonzero"/><g clip-path="url(#cf0840da84)"><path fill="#000000" d="M 120.132812 86.546875 L 105.988281 86.546875 L 105.988281 85.410156 L 119.375 85.410156 L 121.953125 79.417969 C 121.421875 78.925781 120.929688 78.46875 120.4375 78.015625 C 113.609375 72.097656 104.925781 68.835938 95.902344 68.835938 C 95.445312 68.835938 94.953125 68.835938 94.460938 68.875 L 93.132812 77.332031 L 91.996094 77.140625 L 93.472656 67.777344 L 93.929688 67.738281 C 94.613281 67.699219 95.257812 67.699219 95.902344 67.699219 C 105.191406 67.699219 114.140625 71.035156 121.15625 77.140625 C 121.765625 77.671875 122.371094 78.242188 123.015625 78.886719 L 123.28125 79.152344 Z M 120.132812 86.546875 " fill-opacity="1" fill-rule="nonzero"/></g><path fill="#000000" d="M 99.65625 101.714844 L 83.121094 101.714844 L 77.585938 85.75 L 92.5625 76.574219 L 106.671875 85.789062 Z M 83.957031 100.578125 L 98.933594 100.578125 L 105.304688 86.207031 L 92.5625 77.902344 L 78.988281 86.242188 Z M 83.957031 100.578125 " fill-opacity="1" fill-rule="nonzero"/><path fill="#000000" d="M 78.304688 86.546875 L 66.625 86.546875 L 66.625 81.390625 L 67.761719 81.390625 L 67.761719 85.410156 L 78.304688 85.410156 Z M 78.304688 86.546875 " fill-opacity="1" fill-rule="nonzero"/><g clip-path="url(#f0b8c30cbe)"><path fill="#000000" d="M 58.28125 101.90625 C 58.207031 101.90625 58.09375 101.867188 58.015625 101.828125 C 57.75 101.679688 57.636719 101.335938 57.789062 101.070312 C 57.789062 101.070312 57.789062 101.035156 57.828125 101.035156 L 66.738281 85.675781 C 66.890625 85.410156 67.230469 85.296875 67.535156 85.484375 C 67.800781 85.636719 67.914062 85.976562 67.726562 86.28125 L 58.773438 101.601562 C 58.660156 101.792969 58.472656 101.90625 58.28125 101.90625 Z M 58.28125 101.90625 " fill-opacity="1" fill-rule="nonzero"/></g><path fill="#000000" d="M 78.265625 137.097656 L 64.046875 127.921875 L 63.441406 112.980469 L 76.179688 113.8125 L 85.054688 128.601562 Z M 65.144531 127.277344 L 78.039062 135.582031 L 83.652344 128.527344 L 75.5 114.914062 L 64.613281 114.191406 Z M 65.144531 127.277344 " fill-opacity="1" fill-rule="nonzero"/><path fill="#000000" d="M 83.042969 100.84375 L 84.027344 101.417969 L 76.296875 114.644531 L 75.3125 114.070312 Z M 83.042969 100.84375 " fill-opacity="1" fill-rule="nonzero"/><g clip-path="url(#893ee9489e)"><path fill="#000000" d="M 93.96875 68.875 C 93.929688 68.875 93.890625 68.875 93.851562 68.875 C 93.550781 68.835938 93.324219 68.535156 93.398438 68.230469 L 93.398438 68.191406 C 93.4375 67.890625 93.738281 67.660156 94.042969 67.738281 C 94.382812 67.777344 94.574219 68.078125 94.535156 68.382812 L 94.535156 68.421875 C 94.460938 68.6875 94.234375 68.875 93.96875 68.875 Z M 93.96875 68.875 " fill-opacity="1" fill-rule="nonzero"/></g><path fill="#000000" d="M 122.597656 79.835938 C 122.296875 79.835938 122.03125 79.570312 122.03125 79.265625 C 122.03125 78.960938 122.296875 78.695312 122.597656 78.695312 C 122.902344 78.695312 123.167969 78.960938 123.167969 79.265625 C 123.167969 79.570312 122.941406 79.835938 122.597656 79.835938 Z M 122.597656 79.835938 " fill-opacity="1" fill-rule="nonzero"/><path fill="#000000" d="M 108.378906 115.367188 C 108.1875 115.367188 108 115.292969 107.921875 115.101562 L 98.820312 101.449219 C 98.632812 101.183594 98.707031 100.84375 98.972656 100.652344 C 99.238281 100.464844 99.578125 100.539062 99.769531 100.804688 L 108.871094 114.457031 C 109.058594 114.722656 108.984375 115.066406 108.71875 115.253906 C 108.605469 115.332031 108.492188 115.367188 108.378906 115.367188 Z M 108.378906 115.367188 " fill-opacity="1" fill-rule="nonzero"/><path fill="#000000" d="M 122.710938 115.367188 C 122.636719 115.367188 122.558594 115.367188 122.523438 115.332031 C 122.21875 115.214844 122.066406 114.875 122.179688 114.609375 L 127.945312 99.859375 C 128.058594 99.554688 128.402344 99.402344 128.664062 99.515625 C 128.96875 99.628906 129.121094 99.972656 129.007812 100.238281 L 123.242188 114.988281 C 123.167969 115.214844 122.941406 115.367188 122.710938 115.367188 Z M 122.710938 115.367188 " fill-opacity="1" fill-rule="nonzero"/><path fill="#000000" d="M 108.984375 138.007812 L 99.429688 128.640625 L 108.035156 114.191406 L 123.242188 114.191406 L 124.496094 127.160156 Z M 100.867188 128.488281 L 109.097656 136.566406 L 123.320312 126.667969 L 122.21875 115.367188 L 108.71875 115.367188 Z M 100.867188 128.488281 " fill-opacity="1" fill-rule="nonzero"/><path fill="#000000" d="M 127.148438 128.261719 C 127.109375 128.261719 127.074219 128.261719 127.035156 128.261719 L 123.773438 127.503906 C 123.46875 127.425781 123.28125 127.125 123.355469 126.820312 C 123.433594 126.515625 123.734375 126.328125 124.039062 126.402344 L 127.300781 127.160156 C 127.605469 127.238281 127.792969 127.542969 127.71875 127.84375 C 127.640625 128.070312 127.414062 128.261719 127.148438 128.261719 Z M 127.148438 128.261719 " fill-opacity="1" fill-rule="nonzero"/><g clip-path="url(#13159dbdb4)"><path fill="#000000" d="M 102.6875 144.074219 C 102.539062 144.074219 102.386719 144.039062 102.273438 143.921875 C 102.042969 143.695312 102.042969 143.355469 102.273438 143.128906 L 108.605469 136.90625 C 108.832031 136.679688 109.175781 136.679688 109.402344 136.90625 C 109.628906 137.136719 109.628906 137.476562 109.402344 137.703125 L 103.105469 143.921875 C 102.992188 144.039062 102.839844 144.074219 102.6875 144.074219 Z M 102.6875 144.074219 " fill-opacity="1" fill-rule="nonzero"/></g><path fill="#000000" d="M 100.148438 129.132812 L 84.335938 129.132812 C 84.03125 129.132812 83.765625 128.867188 83.765625 128.566406 C 83.765625 128.261719 84.03125 127.996094 84.335938 127.996094 L 100.148438 127.996094 C 100.453125 127.996094 100.71875 128.261719 100.71875 128.566406 C 100.71875 128.867188 100.453125 129.132812 100.148438 129.132812 Z M 100.148438 129.132812 " fill-opacity="1" fill-rule="nonzero"/><path fill="#000000" d="M 78.484375 135.867188 L 86.886719 142.480469 L 86.179688 143.375 L 77.78125 136.757812 Z M 78.484375 135.867188 " fill-opacity="1" fill-rule="nonzero"/><g clip-path="url(#6299ac85ad)"><path fill="#000000" d="M 63.476562 113.851562 L 57.789062 101.601562 L 58.773438 101.070312 L 58.8125 101.070312 L 64.539062 113.359375 Z M 63.476562 113.851562 " fill-opacity="1" fill-rule="nonzero"/></g></svg>