<?xml version="1.0" standalone="no"?>
<!DOCTYPE svg PUBLIC "-//W3C//DTD SVG 20010904//EN"
 "http://www.w3.org/TR/2001/REC-SVG-20010904/DTD/svg10.dtd">
<svg version="1.0" xmlns="http://www.w3.org/2000/svg"
 width="500.000000pt" height="500.000000pt" viewBox="0 0 500.000000 500.000000"
 preserveAspectRatio="xMidYMid meet">
<metadata>
Created by potrace 1.14, written by Peter Selinger 2001-2017
</metadata>
<g transform="translate(0.000000,500.000000) scale(0.100000,-0.100000)"
fill="#000000" stroke="none">
<path d="M2310 4936 c-3 -2 -34 -7 -70 -10 -73 -7 -87 -9 -184 -25 -38 -7 -73
-14 -77 -17 -4 -2 -20 -6 -36 -8 -89 -11 -378 -114 -521 -186 -649 -324 -1111
-897 -1291 -1600 -10 -42 -22 -92 -25 -111 -3 -20 -8 -42 -10 -50 -3 -8 -8
-34 -11 -59 -3 -25 -8 -74 -12 -110 -16 -133 -8 -504 12 -608 2 -11 6 -37 10
-58 12 -78 16 -101 36 -179 81 -324 250 -675 439 -909 244 -303 503 -516 825
-679 227 -114 478 -198 695 -232 25 -3 58 -9 74 -11 167 -27 537 -26 676 1 14
3 42 8 62 10 21 3 59 10 85 16 27 6 56 12 65 14 43 9 181 50 258 77 271 95
573 269 785 453 77 67 224 219 290 300 279 343 477 798 530 1215 22 173 27
483 10 595 -29 186 -39 242 -61 328 -45 178 -103 335 -184 498 -26 54 -58 112
-69 128 -12 16 -21 32 -21 36 0 8 -113 177 -154 230 -303 390 -708 677 -1171
830 -132 44 -315 88 -414 100 -30 4 -63 9 -75 12 -26 6 -460 15 -466 9z"/>
</g>
</svg>
